<?xml version="1.0" encoding="iso-8859-1"?>
<!-- Generator: Adobe Illustrator 21.0.0, SVG Export Plug-In . SVG Version: 6.00 Build 0)  -->
<svg xmlns="http://www.w3.org/2000/svg" xmlns:xlink="http://www.w3.org/1999/xlink" version="1.1" id="Capa_1" x="0px" y="0px" viewBox="0 0 511.514 511.514" style="enable-background:new 0 0 511.514 511.514;" xml:space="preserve" width="512" height="512">
<g>
	<path style="fill:#B32425;" d="M426.757,192.514h-48c-4.143,0-7.5,3.357-7.5,7.5v41.684c0,2.352,1.104,4.567,2.98,5.984l48,36.254   c1.327,1.003,2.919,1.516,4.521,1.516c1.139,0,2.283-0.259,3.342-0.786c2.547-1.269,4.157-3.868,4.157-6.714v-77.939   C434.257,195.871,430.899,192.514,426.757,192.514z"/>
	<path style="fill:#9E1219;" d="M426.757,192.514h-27v74.444l22.48,16.978c1.327,1.003,2.919,1.516,4.521,1.516   c1.139,0,2.283-0.259,3.342-0.786c2.547-1.269,4.157-3.868,4.157-6.714v-77.939C434.257,195.871,430.899,192.514,426.757,192.514z"/>
	<path style="fill:#E0E0E0;" d="M459.249,343.936L275.885,205.445c-11.851-8.952-28.405-8.952-40.256,0L52.264,343.936   c-1.876,1.417-2.979,3.633-2.979,5.984v153.752c0,4.142,3.357,7.5,7.5,7.5h397.943c4.143,0,7.5-3.358,7.5-7.5V349.921   C462.228,347.569,461.125,345.353,459.249,343.936z"/>
	<path style="fill:#C4C4C4;" d="M459.249,343.936l-31.521-23.807v191.044h27c4.143,0,7.5-3.358,7.5-7.5V349.921   C462.228,347.569,461.125,345.353,459.249,343.936z"/>
	<path style="fill:#FF3D43;" d="M500.217,324.036L275.885,154.602c-11.852-8.952-28.405-8.952-40.256,0L11.297,324.036   c-12.225,9.234-14.658,26.693-5.425,38.919c9.233,12.226,26.692,14.66,38.918,5.425l199.88-150.966   c6.527-4.93,15.646-4.93,22.174,0l199.881,150.967c5.002,3.777,10.88,5.602,16.712,5.602c8.423,0,16.75-3.805,22.206-11.028   C514.875,350.729,512.441,333.27,500.217,324.036z"/>
	<path style="fill:#D72E2E;" d="M483.436,339.793c-5.832,0-11.71-1.824-16.712-5.602L266.844,183.225   c-6.527-4.93-15.646-4.93-22.174,0L44.79,334.191c-12.108,9.147-29.346,6.84-38.645-5.082c-7.551,9.676-8.013,23.598-0.273,33.846   c9.233,12.226,26.692,14.66,38.918,5.425l199.88-150.966c6.527-4.93,15.646-4.93,22.174,0l199.881,150.967   c5.002,3.777,10.88,5.602,16.712,5.602c8.423,0,16.75-3.805,22.206-11.028c7.739-10.248,7.277-24.171-0.275-33.847   C499.909,336.104,491.722,339.793,483.436,339.793z"/>
	<path style="fill:#FF3D43;" d="M501.116,52.249c-2.142-15.659-8.572-28.775-18.597-37.93C473.598,6.17,462.164,1.299,449.454,0.23   c-20.097-1.7-38.819,6.148-49.426,19.574C389.423,6.379,370.686-1.472,350.603,0.23c-12.71,1.068-24.144,5.939-33.066,14.088   c-10.023,9.155-16.454,22.271-18.597,37.931c-4.234,30.95,11.608,62.883,45.813,92.347c25.049,21.577,50.907,34.257,51.996,34.786   c1.035,0.503,2.157,0.755,3.279,0.755s2.244-0.252,3.279-0.755c1.089-0.529,26.947-13.209,51.996-34.786   C489.508,115.132,505.35,83.199,501.116,52.249z"/>
	<g>
		<path style="fill:#D72E2E;" d="M501.116,52.249c-2.142-15.659-8.572-28.775-18.597-37.93C473.598,6.17,462.164,1.299,449.454,0.23    c-7.648-0.647-15.092,0.096-21.971,1.996c8.261,2.315,15.72,6.401,21.951,12.093c10.024,9.154,16.455,22.271,18.597,37.93    c4.234,30.95-11.608,62.883-45.813,92.347c-14.208,12.239-28.672,21.611-38.733,27.531c7.676,4.517,12.792,7.026,13.263,7.255    c1.035,0.503,2.157,0.755,3.279,0.755s2.244-0.252,3.279-0.755c1.089-0.529,26.947-13.209,51.996-34.786    C489.508,115.132,505.35,83.199,501.116,52.249z"/>
	</g>
	<path style="fill:#6E563D;" d="M255.757,358.514c-27.019,0-49,21.981-49,49v96.5c0,4.143,3.357,7.5,7.5,7.5h83   c4.143,0,7.5-3.357,7.5-7.5v-96.5C304.757,380.495,282.775,358.514,255.757,358.514z"/>
	<path style="fill:#604B35;" d="M255.757,358.514c-6.165,0-12.061,1.155-17.5,3.243c18.399,7.061,31.5,24.903,31.5,45.757v96.5   c0,4.143-3.357,7.5-7.5,7.5h35c4.143,0,7.5-3.357,7.5-7.5v-96.5C304.757,380.495,282.775,358.514,255.757,358.514z"/>
	<path style="fill:#8CC7EC;" d="M157.943,358.514H118.57c-9.822,0-17.813,7.991-17.813,17.814V415.7   c0,9.822,7.991,17.814,17.813,17.814h39.373c9.822,0,17.814-7.991,17.814-17.814v-39.373   C175.757,366.505,167.766,358.514,157.943,358.514z"/>
	<path style="fill:#66BAEA;" d="M157.943,358.514H123.49c9.822,0,17.814,7.991,17.814,17.814V415.7   c0,9.822-7.991,17.814-17.814,17.814h34.453c9.822,0,17.814-7.991,17.814-17.814v-39.373   C175.757,366.505,167.766,358.514,157.943,358.514z"/>
	<g>
		<path style="fill:#464649;" d="M358.102,87.48c-7.747,0-14.05-6.303-14.05-14.05c0-7.746,6.303-14.049,14.05-14.049    s14.05,6.303,14.05,14.049C372.152,81.178,365.849,87.48,358.102,87.48z"/>
		<path style="fill:#464649;" d="M441.502,87.48c-7.747,0-14.05-6.303-14.05-14.05c0-7.746,6.303-14.049,14.05-14.049    c7.746,0,14.049,6.303,14.049,14.049C455.551,81.178,449.248,87.48,441.502,87.48z"/>
	</g>
	<path style="fill:#464649;" d="M400.028,120.769c-12.378,0-23.18-7.933-26.879-19.739c-1.238-3.953,0.962-8.161,4.915-9.399   c3.953-1.238,8.161,0.963,9.399,4.915c1.729,5.517,6.777,9.224,12.565,9.224c5.788,0,10.837-3.706,12.564-9.223   c1.237-3.953,5.443-6.153,9.398-4.916c3.953,1.238,6.154,5.445,4.916,9.398C423.21,112.837,412.408,120.769,400.028,120.769z"/>
	<path style="fill:#8CC7EC;" d="M393.943,358.514H354.57c-9.822,0-17.814,7.991-17.814,17.814V415.7   c0,9.822,7.991,17.814,17.814,17.814h39.373c9.822,0,17.813-7.991,17.813-17.814v-39.373   C411.757,366.505,403.766,358.514,393.943,358.514z"/>
	<path style="fill:#66BAEA;" d="M393.943,358.514H359.49c9.822,0,17.814,7.991,17.814,17.814V415.7   c0,9.822-7.991,17.814-17.814,17.814h34.453c9.822,0,17.813-7.991,17.813-17.814v-39.373   C411.757,366.505,403.766,358.514,393.943,358.514z"/>
</g>















</svg>
